<svg width="44" height="57" viewBox="0 0 44 57" fill="none" xmlns="http://www.w3.org/2000/svg">
    <mask id="path-1-inside-1_0_3" fill="white">
        <path fill-rule="evenodd" clip-rule="evenodd"
            d="M18.3325 52.6981C19.4781 53.9166 20.5748 55.0832 21.5848 56.1928C22.8689 54.8134 24.2149 53.4246 25.5806 52.0156C34.1926 43.1297 43.5849 33.4389 43.1412 20.238C41.9215 8.85045 32.7356 0 21.5848 0C10.434 0 1.24818 8.85045 0.0285209 20.238C-0.62578 32.5316 10.1128 43.9546 18.3325 52.6981ZM21.3801 30.5723C26.2403 30.5723 30.1804 26.4275 30.1804 21.3145C30.1804 16.2016 26.2403 12.0567 21.3801 12.0567C16.5198 12.0567 12.5797 16.2016 12.5797 21.3145C12.5797 26.4275 16.5198 30.5723 21.3801 30.5723Z" />
    </mask>
    <path fill-rule="evenodd" clip-rule="evenodd"
        d="M18.3325 52.6981C19.4781 53.9166 20.5748 55.0832 21.5848 56.1928C22.8689 54.8134 24.2149 53.4246 25.5806 52.0156C34.1926 43.1297 43.5849 33.4389 43.1412 20.238C41.9215 8.85045 32.7356 0 21.5848 0C10.434 0 1.24818 8.85045 0.0285209 20.238C-0.62578 32.5316 10.1128 43.9546 18.3325 52.6981ZM21.3801 30.5723C26.2403 30.5723 30.1804 26.4275 30.1804 21.3145C30.1804 16.2016 26.2403 12.0567 21.3801 12.0567C16.5198 12.0567 12.5797 16.2016 12.5797 21.3145C12.5797 26.4275 16.5198 30.5723 21.3801 30.5723Z"
        fill="#000000" />
    <path
        d="M21.5848 56.1928L20.8453 56.866L21.5766 57.6693L22.3168 56.8742L21.5848 56.1928ZM18.3325 52.6981L19.0611 52.0131L19.0611 52.0131L18.3325 52.6981ZM25.5806 52.0156L24.8625 51.3196L24.8625 51.3196L25.5806 52.0156ZM43.1412 20.238L44.1406 20.2044L44.1394 20.1679L44.1355 20.1315L43.1412 20.238ZM0.0285209 20.238L-0.965792 20.1315L-0.968643 20.1581L-0.970066 20.1849L0.0285209 20.238ZM22.3243 55.5196C21.3079 54.403 20.2055 53.2304 19.0611 52.0131L17.6039 53.383C18.7507 54.6029 19.8417 55.7634 20.8453 56.866L22.3243 55.5196ZM24.8625 51.3196C23.4982 52.7273 22.145 54.1234 20.8529 55.5114L22.3168 56.8742C23.5928 55.5035 24.9317 54.122 26.2987 52.7115L24.8625 51.3196ZM42.1417 20.2716C42.5687 32.9755 33.5454 42.3607 24.8625 51.3196L26.2987 52.7115C34.8399 43.8988 44.601 33.9023 44.1406 20.2044L42.1417 20.2716ZM21.5848 1C32.1791 1 40.9766 9.41862 42.1468 20.3445L44.1355 20.1315C42.8664 8.28229 33.2921 -1 21.5848 -1V1ZM1.02283 20.3445C2.19305 9.41862 10.9905 1 21.5848 1V-1C9.87754 -1 0.303312 8.28229 -0.965792 20.1315L1.02283 20.3445ZM19.0611 52.0131C14.9411 47.6306 10.2621 42.6499 6.68669 37.2474C3.10945 31.8423 0.716346 26.1301 1.02711 20.2912L-0.970066 20.1849C-1.3136 26.6396 1.33546 32.7857 5.01887 38.3512C8.70409 43.9196 13.5042 49.0221 17.6039 53.383L19.0611 52.0131ZM29.1804 21.3145C29.1804 25.9236 25.6409 29.5723 21.3801 29.5723V31.5723C26.8398 31.5723 31.1804 26.9314 31.1804 21.3145H29.1804ZM21.3801 13.0567C25.6409 13.0567 29.1804 16.7055 29.1804 21.3145H31.1804C31.1804 15.6977 26.8398 11.0567 21.3801 11.0567V13.0567ZM13.5797 21.3145C13.5797 16.7055 17.1192 13.0567 21.3801 13.0567V11.0567C15.9203 11.0567 11.5797 15.6977 11.5797 21.3145H13.5797ZM21.3801 29.5723C17.1192 29.5723 13.5797 25.9236 13.5797 21.3145H11.5797C11.5797 26.9314 15.9203 31.5723 21.3801 31.5723V29.5723Z"
        fill="white" mask="url(#path-1-inside-1_0_3)" />
</svg>